<svg width="12" height="13" viewBox="0 0 12 13" fill="none" xmlns="http://www.w3.org/2000/svg">
<path fill-rule="evenodd" clip-rule="evenodd" d="M8.25012 0.292358C7.42167 0.292358 6.75012 0.963931 6.75012 1.79236V4.04236C6.75012 4.87081 7.42167 5.54236 8.25012 5.54236H10.5001C11.3286 5.54236 12.0001 4.87081 12.0001 4.04236V1.79236C12.0001 0.963931 11.3286 0.292358 10.5001 0.292358H8.25012ZM8.25012 7.04236C7.42167 7.04236 6.75012 7.71391 6.75012 8.54236V10.7924C6.75012 11.6208 7.42167 12.2924 8.25012 12.2924H10.5001C11.3286 12.2924 12.0001 11.6208 12.0001 10.7924V8.54236C12.0001 7.71391 11.3286 7.04236 10.5001 7.04236H8.25012ZM0.00012207 8.54236C0.00012207 7.71391 0.671695 7.04236 1.50012 7.04236H3.75012C4.57857 7.04236 5.25012 7.71391 5.25012 8.54236V10.7924C5.25012 11.6208 4.57857 12.2924 3.75012 12.2924H1.50012C0.671695 12.2924 0.00012207 11.6208 0.00012207 10.7924V8.54236ZM1.50012 0.292358C0.671695 0.292358 0.00012207 0.963931 0.00012207 1.79236V4.04236C0.00012207 4.87081 0.671695 5.54236 1.50012 5.54236H3.75012C4.57857 5.54236 5.25012 4.87081 5.25012 4.04236V1.79236C5.25012 0.963931 4.57857 0.292358 3.75012 0.292358H1.50012Z" fill="white"/>
</svg>
