<svg width="12" height="13" viewBox="0 0 12 13" fill="none" xmlns="http://www.w3.org/2000/svg">
<path fill-rule="evenodd" clip-rule="evenodd" d="M0.00012207 1.79236C0.00012207 0.963931 0.671695 0.292358 1.50012 0.292358C2.32855 0.292358 3.00012 0.963931 3.00012 1.79236C3.00012 2.62079 2.32855 3.29236 1.50012 3.29236C0.671695 3.29236 0.00012207 2.62079 0.00012207 1.79236ZM0.00012207 6.29236C0.00012207 5.46391 0.671695 4.79236 1.50012 4.79236C2.32855 4.79236 3.00012 5.46391 3.00012 6.29236C3.00012 7.12081 2.32855 7.79236 1.50012 7.79236C0.671695 7.79236 0.00012207 7.12081 0.00012207 6.29236ZM1.50012 9.29236C0.671695 9.29236 0.00012207 9.96391 0.00012207 10.7924C0.00012207 11.6208 0.671695 12.2924 1.50012 12.2924C2.32855 12.2924 3.00012 11.6208 3.00012 10.7924C3.00012 9.96391 2.32855 9.29236 1.50012 9.29236ZM4.50012 1.79236C4.50012 0.963931 5.17167 0.292358 6.00012 0.292358C6.82857 0.292358 7.50012 0.963931 7.50012 1.79236C7.50012 2.62079 6.82857 3.29236 6.00012 3.29236C5.17167 3.29236 4.50012 2.62079 4.50012 1.79236ZM6.00012 4.79236C5.17167 4.79236 4.50012 5.46391 4.50012 6.29236C4.50012 7.12081 5.17167 7.79236 6.00012 7.79236C6.82857 7.79236 7.50012 7.12081 7.50012 6.29236C7.50012 5.46391 6.82857 4.79236 6.00012 4.79236ZM4.50012 10.7924C4.50012 9.96391 5.17167 9.29236 6.00012 9.29236C6.82857 9.29236 7.50012 9.96391 7.50012 10.7924C7.50012 11.6208 6.82857 12.2924 6.00012 12.2924C5.17167 12.2924 4.50012 11.6208 4.50012 10.7924ZM10.5001 0.292358C9.67167 0.292358 9.00012 0.963931 9.00012 1.79236C9.00012 2.62079 9.67167 3.29236 10.5001 3.29236C11.3286 3.29236 12.0001 2.62079 12.0001 1.79236C12.0001 0.963931 11.3286 0.292358 10.5001 0.292358ZM9.00012 6.29236C9.00012 5.46391 9.67167 4.79236 10.5001 4.79236C11.3286 4.79236 12.0001 5.46391 12.0001 6.29236C12.0001 7.12081 11.3286 7.79236 10.5001 7.79236C9.67167 7.79236 9.00012 7.12081 9.00012 6.29236ZM10.5001 9.29236C9.67167 9.29236 9.00012 9.96391 9.00012 10.7924C9.00012 11.6208 9.67167 12.2924 10.5001 12.2924C11.3286 12.2924 12.0001 11.6208 12.0001 10.7924C12.0001 9.96391 11.3286 9.29236 10.5001 9.29236Z" fill="white" fill-opacity="0.6"/>
</svg>
