<svg width="17" height="17" viewBox="0 0 17 17" fill="none" xmlns="http://www.w3.org/2000/svg">
<path d="M11.0162 4.14394C10.9577 4.16895 10.8948 4.18185 10.8311 4.18186H2.24707C2.99492 3.18891 3.96445 2.38326 5.07884 1.82877C6.19323 1.27428 7.42186 0.986178 8.66736 0.987308C9.91266 0.986328 11.1411 1.27449 12.2553 1.82898C13.3695 2.38346 14.3389 3.18903 15.0867 4.18186H13.5484C13.3834 4.18186 13.2274 4.11095 13.118 3.98822L12.5436 3.34277C12.4588 3.24549 12.3348 3.19095 12.2062 3.19095H12.1779C12.1172 3.19112 12.0572 3.20353 12.0014 3.22744C11.9456 3.25134 11.8952 3.28624 11.8533 3.33004L11.1713 4.0364C11.1274 4.08235 11.0746 4.11894 11.0162 4.14394Z" fill="white" fill-opacity="0.8"/>
<path d="M16.2445 6.33875H11.6425C11.4783 6.33875 11.3215 6.26784 11.2121 6.14511L10.6376 5.49966C10.5954 5.45189 10.5435 5.41363 10.4854 5.38743C10.4272 5.36122 10.3641 5.34766 10.3002 5.34766C10.2364 5.34766 10.1733 5.36122 10.1151 5.38743C10.057 5.41363 10.0051 5.45189 9.96295 5.49966L9.47055 6.0542C9.30825 6.23511 9.07755 6.33966 8.83405 6.33966H1.08802C0.863878 6.9776 0.722318 7.64143 0.666748 8.31513H7.97965C8.04325 8.31503 8.10625 8.30213 8.16465 8.27713C8.22315 8.25213 8.27595 8.21553 8.31975 8.16963L9.00095 7.46243C9.04295 7.41843 9.09345 7.38343 9.14935 7.35953C9.20535 7.33563 9.26555 7.32333 9.32645 7.32333H9.35385C9.41765 7.32323 9.48075 7.33683 9.53895 7.36293C9.59705 7.38913 9.64895 7.42733 9.69115 7.47513L10.2656 8.12053C10.3197 8.18143 10.3861 8.23013 10.4604 8.26353C10.5348 8.29693 10.6154 8.31423 10.6969 8.31423H16.6667C16.6093 7.62783 16.4652 6.96602 16.2445 6.33875Z" fill="white" fill-opacity="0.8"/>
<path d="M5.2773 12.4278C5.33592 12.4029 5.38887 12.3665 5.43294 12.3206L6.11408 11.6134C6.15607 11.5694 6.20657 11.5344 6.26253 11.5105C6.31848 11.4866 6.37873 11.4743 6.43961 11.4743H6.46696C6.53078 11.4742 6.59388 11.4878 6.65205 11.514C6.71027 11.5401 6.76217 11.5784 6.80437 11.6261L7.37877 12.2715C7.43287 12.3324 7.49927 12.3811 7.57357 12.4145C7.64797 12.4479 7.72857 12.4652 7.81007 12.4652H15.8999C16.2064 11.8322 16.4271 11.1615 16.5565 10.4706H8.79217C8.62707 10.4706 8.47027 10.4006 8.36087 10.277L7.78637 9.63149C7.74417 9.58379 7.69227 9.54549 7.63417 9.51929C7.57597 9.49309 7.51287 9.47949 7.44897 9.47949C7.38517 9.47949 7.32207 9.49309 7.26387 9.51929C7.20577 9.54549 7.15377 9.58379 7.11167 9.63149L6.61924 10.1861C6.45784 10.3679 6.22715 10.4715 5.98369 10.4715H0.7771C0.90637 11.1622 1.12714 11.8326 1.43362 12.4652H5.09191C5.15561 12.4654 5.21868 12.4526 5.2773 12.4278Z" fill="white" fill-opacity="0.8"/>
<path d="M14.5367 14.4432H5.63718C5.47214 14.4432 5.3153 14.3722 5.20588 14.2495L4.63142 13.6041C4.58924 13.5563 4.53733 13.518 4.47916 13.4918C4.42098 13.4656 4.35788 13.4521 4.29404 13.4521C4.23021 13.4521 4.16711 13.4656 4.10893 13.4918C4.05076 13.518 3.99886 13.5563 3.95667 13.6041L3.46427 14.1586C3.30288 14.3395 3.07219 14.4441 2.82872 14.4441H2.7959C3.54638 15.2477 4.45506 15.8883 5.46513 16.326C6.4752 16.7637 7.56496 16.9889 8.66626 16.9877C9.76766 16.9888 10.8575 16.7634 11.8676 16.3256C12.8777 15.8878 13.7863 15.2469 14.5367 14.4432Z" fill="white" fill-opacity="0.8"/>
</svg>

