<svg width="18" height="21" viewBox="0 0 18 21" fill="none" xmlns="http://www.w3.org/2000/svg">
<path d="M16.0997 2.05117H2.29971V18.7889L7.99971 13.3177L9.19971 12.1724L10.3997 13.3177L16.0997 18.7889V2.05117ZM16.2617 0.326172C16.4682 0.326172 16.6657 0.366672 16.8542 0.447672C17.1507 0.564172 17.3867 0.748172 17.5622 0.999672C17.7377 1.25117 17.8252 1.52992 17.8247 1.83592V19.2067C17.8247 19.5122 17.7372 19.7907 17.5622 20.0422C17.3872 20.2937 17.1512 20.4779 16.8542 20.5949C16.6837 20.6669 16.4862 20.7029 16.2617 20.7029C15.8302 20.7029 15.4572 20.5592 15.1427 20.2717L9.19971 14.5574L3.25671 20.2717C2.93321 20.5682 2.56021 20.7164 2.13771 20.7164C1.93121 20.7164 1.73371 20.6759 1.54521 20.5949C1.24871 20.4779 1.01271 20.2937 0.837209 20.0422C0.661709 19.7907 0.574209 19.5122 0.574709 19.2067V1.83592C0.574709 1.53042 0.662209 1.25167 0.837209 0.999672C1.01221 0.747672 1.24821 0.563672 1.54521 0.447672C1.73371 0.366672 1.93121 0.326172 2.13771 0.326172H16.2617Z" fill="#737482"/>
</svg>
