<svg width="15" height="9" viewBox="0 0 15 9" fill="none" xmlns="http://www.w3.org/2000/svg">
<path d="M14.0217 1.26245C14.0217 1.38095 13.9762 1.4857 13.8852 1.5767L7.51467 7.9472C7.42367 8.0382 7.31892 8.0837 7.20042 8.0837C7.08192 8.0837 6.97692 8.0382 6.88542 7.9472L0.514918 1.57595C0.423918 1.48495 0.378418 1.37995 0.378418 1.26095C0.378418 1.14195 0.423918 1.0372 0.514918 0.946703L1.19817 0.263453C1.28967 0.172453 1.39467 0.126953 1.51317 0.126953C1.63167 0.126953 1.73642 0.172453 1.82742 0.263453L7.19967 5.6372L12.5727 0.264204C12.6637 0.173204 12.7687 0.127703 12.8877 0.127703C13.0067 0.127703 13.1114 0.173204 13.2019 0.264204L13.8852 0.947453C13.9762 1.03895 14.0217 1.14395 14.0217 1.26245Z" fill="#737482"/>
</svg>
