<svg width="12" height="4" viewBox="0 0 12 4" fill="none" xmlns="http://www.w3.org/2000/svg">
<path fill-rule="evenodd" clip-rule="evenodd" d="M2.7915 2.09961C2.7915 2.85898 2.1759 3.47461 1.4165 3.47461C0.65711 3.47461 0.0415039 2.85898 0.0415039 2.09961C0.0415039 1.34024 0.65711 0.724609 1.4165 0.724609C2.1759 0.724609 2.7915 1.34024 2.7915 2.09961ZM7.37484 2.09961C7.37484 2.85898 6.7592 3.47461 5.99984 3.47461C5.24047 3.47461 4.62484 2.85898 4.62484 2.09961C4.62484 1.34024 5.24047 0.724609 5.99984 0.724609C6.7592 0.724609 7.37484 1.34024 7.37484 2.09961ZM10.5823 3.47461C11.3416 3.47461 11.9573 2.85898 11.9573 2.09961C11.9573 1.34024 11.3416 0.724609 10.5823 0.724609C9.82289 0.724609 9.20725 1.34024 9.20725 2.09961C9.20725 2.85898 9.82289 3.47461 10.5823 3.47461Z" fill="white" fill-opacity="0.6"/>
</svg>
