<svg width="12" height="11" viewBox="0 0 12 11" fill="none" xmlns="http://www.w3.org/2000/svg">
<path fill-rule="evenodd" clip-rule="evenodd" d="M7.66667 1.84998C7.09133 1.84998 6.625 2.31634 6.625 2.89164C6.625 3.46694 7.09133 3.93331 7.66667 3.93331C8.242 3.93331 8.70833 3.46694 8.70833 2.89164C8.70833 2.31634 8.242 1.84998 7.66667 1.84998ZM5.46125 2.26664C5.73333 1.30477 6.61767 0.599976 7.66667 0.599976C8.71567 0.599976 9.6 1.30477 9.87208 2.26664H11C11.3452 2.26664 11.625 2.54647 11.625 2.89164C11.625 3.23682 11.3452 3.51664 11 3.51664H9.87208C9.6 4.47856 8.71567 5.18331 7.66667 5.18331C6.61767 5.18331 5.73333 4.47856 5.46125 3.51664H1C0.654825 3.51664 0.375 3.23682 0.375 2.89164C0.375 2.54647 0.654825 2.26664 1 2.26664H5.46125ZM4.33333 7.26664C3.75803 7.26664 3.29167 7.73298 3.29167 8.30831C3.29167 8.88364 3.75803 9.34998 4.33333 9.34998C4.90867 9.34998 5.375 8.88364 5.375 8.30831C5.375 7.73298 4.90867 7.26664 4.33333 7.26664ZM2.12793 7.68331C2.39998 6.72139 3.28435 6.01664 4.33333 6.01664C5.38233 6.01664 6.26667 6.72139 6.53875 7.68331H11C11.3452 7.68331 11.625 7.96314 11.625 8.30831C11.625 8.65348 11.3452 8.93331 11 8.93331H6.53875C6.26667 9.89523 5.38233 10.6 4.33333 10.6C3.28435 10.6 2.39998 9.89523 2.12793 8.93331H1C0.654825 8.93331 0.375 8.65348 0.375 8.30831C0.375 7.96314 0.654825 7.68331 1 7.68331H2.12793Z" fill="white"/>
</svg>
