<svg width="16" height="18" viewBox="0 0 16 18" fill="none" xmlns="http://www.w3.org/2000/svg">
<path fill-rule="evenodd" clip-rule="evenodd" d="M6.13525 1.84359C6.13525 1.18191 6.67525 0.645508 7.33549 0.645508H8.39461C9.05701 0.645508 9.59485 1.17975 9.59485 1.84359V3.22239H6.13525V1.84359ZM12.1905 4.43775L13.4137 3.22239L14.637 4.43775L13.413 5.65239L12.1905 4.43775Z" fill="#212121"/>
<path d="M7.86544 17.827C12.1652 17.827 15.6508 14.3655 15.6508 10.0956C15.6508 5.82571 12.1652 2.36426 7.86544 2.36426C3.5657 2.36426 0.0800781 5.82571 0.0800781 10.0956C0.0800781 14.3655 3.5657 17.827 7.86544 17.827Z" fill="white"/>
<path d="M7.86566 17.0784C11.7518 17.0784 14.9022 13.9522 14.9022 10.0958C14.9022 6.23948 11.7518 3.11328 7.86566 3.11328C3.97948 3.11328 0.829102 6.23948 0.829102 10.0958C0.829102 13.9522 3.97948 17.0784 7.86566 17.0784Z" stroke="#212121" stroke-width="1.4976"/>
<path d="M8.29734 6.66221C8.29734 6.42323 8.10376 6.22949 7.86498 6.22949C7.62619 6.22949 7.43262 6.42323 7.43262 6.66221V10.0923C7.43262 10.3313 7.62619 10.525 7.86498 10.525C8.10376 10.525 8.29734 10.3313 8.29734 10.0923V6.66221Z" fill="#D0011B"/>
<path fill-rule="evenodd" clip-rule="evenodd" d="M12.5899 10.9787C12.7001 11.0085 12.7941 11.0803 12.8517 11.1788C12.9094 11.2773 12.926 11.3944 12.8981 11.505C12.8671 11.6156 12.7938 11.7094 12.694 11.7662C12.5943 11.8229 12.4761 11.838 12.3653 11.8082L7.85234 10.6072C7.74204 10.5774 7.64789 10.5055 7.59023 10.4068C7.53256 10.3082 7.51602 10.1909 7.54418 10.0802C7.57529 9.96975 7.64868 9.87608 7.74844 9.81946C7.84819 9.76285 7.96624 9.74786 8.07698 9.77775L12.5899 10.9787Z" fill="#D0011B"/>
</svg>
