<svg width="18" height="16" viewBox="0 0 18 16" fill="none" xmlns="http://www.w3.org/2000/svg">
<path fill-rule="evenodd" clip-rule="evenodd" d="M5.4375 1.84961C3.4049 1.84961 1.75 3.50446 1.75 5.53712C1.75 6.20991 1.93256 6.86671 2.27701 7.43811L2.28369 7.44931C3.14802 8.85911 4.79417 10.4528 6.30927 11.7464C7.5015 12.7642 8.5657 13.5572 9 13.8737C9.4344 13.5572 10.4987 12.7641 11.6909 11.7462C13.2066 10.4522 14.8533 8.85781 15.7172 7.44781L15.7191 7.44451L15.723 7.43811C16.0674 6.86671 16.25 6.20991 16.25 5.53712C16.25 3.50451 14.5951 1.84961 12.5625 1.84961C11.3854 1.84961 10.2922 2.40874 9.6021 3.33786L9 4.14842L8.3979 3.33785C7.7079 2.40884 6.61482 1.84961 5.4375 1.84961ZM15.714 7.45351C15.7131 7.45511 15.7124 7.45631 15.7121 7.45681L15.713 7.45521L15.714 7.45351ZM8.9965 13.952C8.9977 13.952 8.9989 13.9519 9.0001 13.9519C9.0015 13.9519 9.0028 13.952 9.0042 13.952C9.0061 13.9521 9.008 13.9522 9.01 13.9523V14.6774L9.003 14.2987L9.0003 14.1573L8.9965 13.952ZM9.0176 15.4517C9.2409 15.4503 9.4691 15.3828 9.6668 15.2422C9.7829 15.1597 11.1191 14.2067 12.6649 12.887C14.1905 11.5845 15.9959 9.86201 16.9937 8.23561C17.0007 8.22451 17.0061 8.21541 17.0096 8.20941L17.0118 8.20571C17.4951 7.40101 17.75 6.47881 17.75 5.53712C17.75 2.6761 15.4236 0.349609 12.5625 0.349609C11.2169 0.349609 9.9489 0.869399 9 1.7657C8.0512 0.869479 6.78331 0.349609 5.4375 0.349609C2.57649 0.349609 0.25 2.67602 0.25 5.53712C0.25 6.48151 0.50634 7.40621 0.99236 8.21251L1.00063 8.22631L1.00242 8.22931C1.99956 9.85771 3.80767 11.5829 5.33531 12.8872C6.88036 14.2063 8.2159 15.1589 8.3331 15.2421M15.7121 7.45681C15.7119 7.45711 15.7119 7.45711 15.7121 7.45681V7.45681Z" fill="white" fill-opacity="0.6"/>
</svg>
