<svg width="16" height="15" viewBox="0 0 16 15" fill="none" xmlns="http://www.w3.org/2000/svg">
<path fill-rule="evenodd" clip-rule="evenodd" d="M8.0002 4.69961C7.64563 4.69961 7.29453 4.76945 6.96695 4.90513C6.63937 5.04082 6.34173 5.2397 6.09101 5.49042C5.84029 5.74114 5.64141 6.03879 5.50572 6.36636C5.37003 6.69394 5.3002 7.04504 5.3002 7.39961C5.3002 7.75418 5.37003 8.10528 5.50572 8.43285C5.64141 8.76043 5.84029 9.05808 6.09101 9.3088C6.34173 9.55952 6.63937 9.7584 6.96695 9.89408C7.29453 10.0298 7.64563 10.0996 8.0002 10.0996C8.71628 10.0996 9.40304 9.81515 9.90938 9.3088C10.4157 8.80245 10.7002 8.11569 10.7002 7.39961C10.7002 6.68353 10.4157 5.99677 9.90938 5.49042C9.40304 4.98407 8.71628 4.69961 8.0002 4.69961ZM14.0002 6.69961C13.8496 5.34575 13.2428 4.08343 12.2796 3.1202C11.3164 2.15697 10.0541 1.55019 8.7002 1.39961V0.0996094H7.3002V1.39961C5.94634 1.55019 4.68401 2.15697 3.72079 3.1202C2.75756 4.08343 2.15077 5.34575 2.0002 6.69961H0.700195V8.09961H2.0002C2.15077 9.45347 2.75756 10.7158 3.72079 11.679C4.68401 12.6422 5.94634 13.249 7.3002 13.3996V14.6996H8.7002V13.3996C10.0541 13.249 11.3164 12.6422 12.2796 11.679C13.2428 10.7158 13.8496 9.45347 14.0002 8.09961H15.3002V6.69961H14.0002ZM8.0002 12.0996C6.75368 12.0996 5.55821 11.6044 4.67679 10.723C3.79537 9.84159 3.3002 8.64613 3.3002 7.39961C3.3002 6.15309 3.79537 4.95763 4.67679 4.07621C5.55821 3.19479 6.75368 2.69961 8.0002 2.69961C9.24671 2.69961 10.4422 3.19479 11.3236 4.07621C12.205 4.95763 12.7002 6.15309 12.7002 7.39961C12.7002 8.64613 12.205 9.84159 11.3236 10.723C10.4422 11.6044 9.24671 12.0996 8.0002 12.0996Z" fill="white"/>
</svg>
