<svg width="20" height="15" viewBox="0 0 20 15" fill="none" xmlns="http://www.w3.org/2000/svg">
<path fill-rule="evenodd" clip-rule="evenodd" d="M15.4288 8.00891V7.29961C15.4288 4.17525 12.896 1.64246 9.7717 1.64246C8.497 1.64246 7.32278 2.06312 6.37727 2.7735C6.03665 3.02941 5.55306 2.96075 5.29714 2.62012C5.04123 2.2795 5.1099 1.79591 5.45052 1.54C6.65406 0.635749 8.1514 0.0996094 9.7717 0.0996094C13.7481 0.0996094 16.9716 3.32315 16.9716 7.29961V8.00841L18.2259 6.75411C18.5272 6.45281 19.0156 6.45281 19.3169 6.75411C19.6181 7.05541 19.6181 7.54381 19.3169 7.84511L16.2 10.962L13.0831 7.84511C12.7818 7.54381 12.7818 7.05541 13.0831 6.75411C13.3843 6.45281 13.8728 6.45281 14.174 6.75411L15.4288 8.00891ZM5.36879 7.84511L4.11427 6.59061V7.29961C4.11427 10.424 6.64706 12.9568 9.7714 12.9568C11.0461 12.9568 12.2203 12.5361 13.1658 11.8257C13.5064 11.5698 13.99 11.6385 14.2459 11.9791C14.5018 12.3197 14.4332 12.8033 14.0925 13.0592C12.889 13.9635 11.3917 14.4996 9.7714 14.4996C5.79496 14.4996 2.57142 11.2761 2.57142 7.29961V6.59061L1.31691 7.84511C1.01565 8.14641 0.527213 8.14641 0.225953 7.84511C-0.0753175 7.54391 -0.0753175 7.05541 0.225953 6.75421L3.34285 3.63726L6.45975 6.75421C6.76101 7.05541 6.76101 7.54391 6.45975 7.84511C6.15849 8.14641 5.67005 8.14641 5.36879 7.84511Z" fill="white" fill-opacity="0.6"/>
</svg>
