<svg width="20" height="20" viewBox="0 0 20 20" fill="none" xmlns="http://www.w3.org/2000/svg">
<path fill-rule="evenodd" clip-rule="evenodd" d="M8.5 1.75087C7.61358 1.75087 6.73583 1.92546 5.91689 2.26468C5.09794 2.6039 4.35382 3.1011 3.72703 3.72789C3.10023 4.35469 2.60303 5.0988 2.26381 5.91775C1.92459 6.7367 1.75 7.61444 1.75 8.50087C1.75 9.38729 1.92459 10.265 2.26381 11.084C2.60303 11.9029 3.10023 12.647 3.72703 13.2738C4.35382 13.9006 5.09794 14.3978 5.91689 14.7371C6.73583 15.0763 7.61358 15.2509 8.5 15.2509C10.2902 15.2509 12.0071 14.5397 13.273 13.2738C14.5388 12.008 15.25 10.2911 15.25 8.50087C15.25 6.71065 14.5388 4.99377 13.273 3.72789C12.0071 2.46202 10.2902 1.75087 8.5 1.75087ZM0.25 8.50087C0.250175 7.17596 0.56944 5.87059 1.18079 4.69516C1.79214 3.51974 2.67759 2.50884 3.76224 1.74799C4.84689 0.987128 6.09883 0.49869 7.41216 0.32399C8.7255 0.149289 10.0616 0.293465 11.3074 0.744321C12.5533 1.19518 13.6722 1.93945 14.5695 2.91419C15.4669 3.88892 16.1163 5.06544 16.4628 6.34423C16.8094 7.62301 16.8428 8.96645 16.5603 10.2609C16.2778 11.5553 15.6878 12.7627 14.84 13.7809L19.53 18.4709C19.6037 18.5395 19.6628 18.6223 19.7038 18.7143C19.7448 18.8063 19.7668 18.9056 19.7686 19.0063C19.7704 19.107 19.7518 19.2071 19.7141 19.3005C19.6764 19.3939 19.6203 19.4787 19.549 19.5499C19.4778 19.6211 19.393 19.6773 19.2996 19.715C19.2062 19.7527 19.1062 19.7712 19.0055 19.7695C18.9048 19.7677 18.8055 19.7456 18.7135 19.7046C18.6215 19.6637 18.5387 19.6046 18.47 19.5309L13.78 14.8409C12.5752 15.8444 11.1094 16.4837 9.55432 16.6841C7.99922 16.8845 6.41922 16.6376 4.99941 15.9723C3.5796 15.307 2.37878 14.2508 1.53763 12.9276C0.69648 11.6044 0.249828 10.0688 0.25 8.50087Z" fill="#989AAA"/>
</svg>
