<svg width="13" height="17" viewBox="0 0 13 17" fill="none" xmlns="http://www.w3.org/2000/svg">
<path fill-rule="evenodd" clip-rule="evenodd" d="M4.10909 4.80872C3.8279 5.08989 3.37206 5.08989 3.09088 4.80872C2.80971 4.52754 2.80971 4.07166 3.09088 3.79048L5.97091 0.910484L6.48 0.401367L6.98909 0.910484L9.86909 3.79048C10.1503 4.07166 10.1503 4.52754 9.86909 4.80872C9.5879 5.08989 9.1321 5.08989 8.85091 4.80872L7.2 3.15783V11.9796C7.2 12.3772 6.87763 12.6996 6.48 12.6996C6.08237 12.6996 5.76 12.3772 5.76 11.9796V3.15783L4.10909 4.80872ZM3.24 8.85961C2.24589 8.85961 1.44 9.66553 1.44 10.6596V12.9396C1.44 14.1325 2.40707 15.0996 3.6 15.0996H9.36C10.5529 15.0996 11.52 14.1325 11.52 12.9396V10.6596C11.52 9.66553 10.7141 8.85961 9.72 8.85961C9.32237 8.85961 9 8.53724 9 8.13961C9 7.74198 9.32237 7.41961 9.72 7.41961C11.5094 7.41961 12.96 8.87017 12.96 10.6596V12.9396C12.96 14.9279 11.3483 16.5396 9.36 16.5396H3.6C1.61177 16.5396 0 14.9279 0 12.9396V10.6596C0 8.87017 1.4506 7.41961 3.24 7.41961C3.63763 7.41961 3.96 7.74198 3.96 8.13961C3.96 8.53724 3.63763 8.85961 3.24 8.85961Z" fill="white" fill-opacity="0.6"/>
</svg>
