<svg width="25" height="22" viewBox="0 0 25 22" fill="none" xmlns="http://www.w3.org/2000/svg">
<path d="M19.057 13.229V17.5153C19.057 18.5778 18.6795 19.4863 17.9245 20.2408C17.1695 20.9953 16.2612 21.3725 15.1997 21.3725H4.05696C2.99446 21.3725 2.08596 20.995 1.33146 20.24C0.576957 19.485 0.199707 18.577 0.199707 17.516V6.37253C0.199707 5.31003 0.576957 4.40153 1.33146 3.64703C2.08596 2.89253 2.99446 2.51503 4.05696 2.51453H13.4852C13.6102 2.51453 13.713 2.55478 13.7935 2.63528C13.874 2.71578 13.914 2.81853 13.9135 2.94353V3.80078C13.9135 3.92578 13.8735 4.02828 13.7935 4.10828C13.7135 4.18828 13.611 4.22853 13.486 4.22903H4.05621C3.46671 4.22903 2.96221 4.43903 2.54271 4.85903C2.12321 5.27903 1.91321 5.78353 1.91271 6.37253V17.5153C1.91271 18.1043 2.12271 18.6088 2.54271 19.0288C2.96271 19.4488 3.46721 19.6585 4.05621 19.658H15.1997C15.7892 19.658 16.2937 19.448 16.7132 19.028C17.1327 18.608 17.3427 18.1038 17.3432 17.5153V13.2283C17.3432 13.1033 17.3832 13.0008 17.4632 12.9208C17.5432 12.8408 17.6457 12.8005 17.7707 12.8H18.628C18.753 12.8 18.8557 12.84 18.9362 12.92C19.0167 13 19.0567 13.1028 19.0562 13.2283M24.1997 1.65803V8.51528C24.1997 8.74728 24.1147 8.94803 23.9447 9.11753C23.7747 9.28703 23.574 9.37203 23.3425 9.37253C23.111 9.37303 22.9102 9.28803 22.7402 9.11753L20.3822 6.76028L11.6507 15.4933C11.5612 15.5828 11.4587 15.6275 11.3432 15.6275C11.2277 15.6275 11.1247 15.5828 11.0342 15.4933L9.50796 13.967C9.41846 13.8775 9.37371 13.7748 9.37371 13.6588C9.37371 13.5428 9.41846 13.4403 9.50796 13.3513L18.2402 4.61678L15.8822 2.26028C15.7122 2.09078 15.6272 1.89003 15.6272 1.65803C15.6272 1.42603 15.7122 1.22503 15.8822 1.05503C16.0522 0.885033 16.253 0.800283 16.4845 0.800783H23.3417C23.5737 0.800783 23.7747 0.885783 23.9447 1.05578C24.1147 1.22578 24.2002 1.42653 24.1997 1.65803Z" fill="#737482"/>
</svg>
