<svg width="18" height="14" viewBox="0 0 18 14" fill="none" xmlns="http://www.w3.org/2000/svg">
<path fill-rule="evenodd" clip-rule="evenodd" d="M2.19794 6.47621C2.77228 5.68978 3.72124 4.54159 4.93788 3.59597C6.15762 2.64793 7.58963 1.94684 9.14684 1.94684C10.7041 1.94684 12.1361 2.64793 13.3558 3.59597C14.5725 4.54159 15.5214 5.68978 16.0957 6.47621C16.3222 6.7862 16.3222 7.18748 16.0957 7.49746C15.5214 8.28389 14.5725 9.43205 13.3558 10.3777C12.1361 11.3257 10.7041 12.0268 9.14684 12.0268C7.58963 12.0268 6.15762 11.3257 4.93788 10.3777C3.72124 9.43205 2.77228 8.28389 2.19794 7.49746C1.97154 7.18748 1.97154 6.7862 2.19794 6.47621ZM9.14684 0.506836C7.151 0.506836 5.41352 1.40249 4.05418 2.45902C2.69173 3.51796 1.65203 4.78213 1.03505 5.6269C0.439164 6.4429 0.439164 7.53077 1.03505 8.34677C1.65203 9.19157 2.69173 10.4557 4.05418 11.5147C5.41352 12.5712 7.151 13.4668 9.14684 13.4668C11.1427 13.4668 12.8802 12.5712 14.2395 11.5147C15.602 10.4557 16.6417 9.19157 17.2587 8.34677C17.8545 7.53077 17.8545 6.4429 17.2587 5.6269C16.6417 4.78213 15.602 3.51796 14.2395 2.45901C12.8802 1.40249 11.1427 0.506836 9.14684 0.506836ZM9.14684 8.90684C10.2073 8.90684 11.0668 8.04725 11.0668 6.98684C11.0668 5.92642 10.2073 5.06684 9.14684 5.06684C8.08643 5.06684 7.22684 5.92642 7.22684 6.98684C7.22684 8.04725 8.08643 8.90684 9.14684 8.90684Z" fill="white" fill-opacity="0.8"/>
</svg>
