<?xml version="1.0" standalone="no"?>
<!DOCTYPE svg PUBLIC "-//W3C//DTD SVG 20010904//EN"
 "http://www.w3.org/TR/2001/REC-SVG-20010904/DTD/svg10.dtd">
<svg version="1.0" xmlns="http://www.w3.org/2000/svg"
 width="550.000000pt" height="309.000000pt" viewBox="0 0 550.000000 309.000000"
 preserveAspectRatio="xMidYMid meet">

<g transform="translate(0.000000,309.000000) scale(0.100000,-0.100000)"
fill="#000000" stroke="none">
<path d="M0 1545 l0 -1545 1466 0 1466 0 -20 33 c-11 17 -23 43 -26 57 -4 15
1 9 14 -14 11 -22 27 -48 36 -58 16 -17 67 -18 1291 -18 l1273 0 0 1545 0
1545 -215 0 -215 0 0 -825 0 -825 -36 0 c-19 0 -44 5 -55 10 -16 9 -19 7 -19
-12 0 -20 -2 -20 -23 8 -12 17 -71 77 -132 135 -60 57 -128 122 -151 144 -22
22 -51 47 -64 55 -13 8 -35 28 -49 45 -14 16 -48 50 -75 75 -27 25 -69 66 -94
93 -25 26 -48 43 -51 39 -3 -5 -28 -14 -56 -19 -45 -10 -46 -11 -15 -12 42 -1
30 -17 -20 -26 -19 -3 -46 -8 -60 -10 -14 -3 -32 -1 -40 5 -12 8 -11 10 6 10
12 0 27 6 33 14 16 20 1 27 -68 36 l-56 6 94 9 c77 6 91 10 78 20 -21 15 -177
18 -177 2 0 -5 -2 -8 -5 -5 -9 9 7 38 20 38 8 0 17 5 21 12 5 8 2 9 -9 5 -20
-8 -21 -1 -5 57 11 43 13 44 42 39 39 -8 92 -42 130 -82 58 -64 63 -61 61 37
-1 68 -7 100 -27 147 -14 33 -28 91 -32 129 -4 38 -14 83 -23 100 -19 36 -103
126 -118 126 -9 0 -38 27 -105 95 -5 6 -41 48 -81 95 -39 47 -75 87 -80 88 -5
2 -9 10 -9 17 0 7 -12 16 -27 19 -16 4 -54 20 -85 37 -66 34 -119 42 -281 40
-112 -1 -121 -2 -194 -36 l-76 -35 6 33 c3 17 8 40 12 50 7 16 -8 17 -219 17
l-226 0 -6 -26 c-5 -19 0 -32 20 -53 36 -38 35 -81 -4 -109 -22 -17 -30 -31
-30 -53 0 -17 -4 -39 -10 -49 -11 -21 -130 -85 -130 -70 0 6 -4 9 -8 6 -4 -2
-14 10 -21 27 -7 18 -42 92 -77 165 -60 123 -66 132 -92 132 -16 0 -37 7 -48
15 -13 10 -46 14 -114 14 -94 1 -95 0 -72 -17 41 -31 26 -60 -58 -119 -93 -65
-186 -149 -203 -183 -8 -14 -18 -34 -24 -45 -5 -11 -19 -38 -29 -60 -10 -22
-23 -43 -29 -47 -24 -18 67 -5 197 28 224 56 232 51 222 -141 -3 -66 -8 -123
-12 -126 -4 -4 -74 -10 -157 -13 -207 -9 -270 -14 -345 -26 -36 -5 -155 -15
-265 -21 -110 -6 -211 -13 -225 -15 -113 -14 -180 -16 -180 -6 0 28 43 122 83
182 24 36 56 84 71 108 15 23 37 47 50 52 15 5 81 0 191 -15 93 -13 172 -22
177 -19 16 10 7 33 -21 51 -16 10 -62 40 -103 67 -78 53 -186 109 -230 120
-47 11 -51 35 -15 106 28 58 40 120 25 135 -3 3 -85 4 -184 3 l-178 -3 64 -34
c123 -64 127 -81 34 -142 -36 -23 -77 -58 -92 -78 -14 -20 -38 -50 -54 -66
-15 -17 -41 -59 -58 -94 -26 -52 -37 -66 -70 -79 -22 -10 -40 -20 -40 -24 0
-16 67 -7 212 29 157 38 182 37 184 -3 1 -29 -21 -78 -63 -141 -43 -65 -55
-84 -80 -132 l-18 -33 -225 6 c-124 3 -233 6 -242 6 -16 0 -18 13 -18 135 0
113 2 135 15 135 8 0 15 5 15 10 0 6 -7 10 -15 10 -13 0 -15 34 -15 250 l0
250 -215 0 -215 0 0 -1545z m4060 1120 c32 -17 45 -63 14 -51 -8 3 -13 2 -11
-2 3 -4 -1 -13 -9 -20 -12 -11 -17 -7 -30 24 -14 33 -13 64 1 64 3 0 19 -7 35
-15z m-1094 -129 c-1 -6 -10 -35 -20 -63 -18 -54 -36 -77 -36 -48 0 11 -5 15
-15 11 -20 -7 -20 43 0 113 l16 52 28 -27 c16 -15 28 -32 27 -38z m-73 -174
c3 -24 1 -40 -4 -36 -5 3 -9 24 -9 46 0 51 5 47 13 -10z m25 -97 c-3 -3 -9 2
-12 12 -6 14 -5 15 5 6 7 -7 10 -15 7 -18z m-38 -23 c0 -15 -2 -15 -10 -2 -13
20 -13 33 0 25 6 -3 10 -14 10 -23z m40 -83 c0 -6 -4 -7 -10 -4 -5 3 -10 11
-10 16 0 6 5 7 10 4 6 -3 10 -11 10 -16z m918 -2 c12 -13 23 -41 26 -67 l6
-45 -13 38 c-15 44 -30 57 -69 57 -27 0 -27 1 -11 20 22 26 35 25 61 -3z
m-904 -43 c3 -8 2 -12 -4 -9 -6 3 -10 10 -10 16 0 14 7 11 14 -7z m874 -29 c7
-14 12 -45 11 -68 l0 -42 -14 45 c-7 25 -16 55 -20 68 -10 30 9 28 23 -3z
m-813 -17 c8 -18 22 -44 31 -58 10 -14 -2 -5 -24 20 -23 25 -37 47 -32 48 6 2
8 8 4 13 -3 5 -3 9 0 9 3 0 12 -15 21 -32z m591 -13 c-4 -14 -2 -25 4 -25 5 0
10 -6 10 -13 0 -8 -7 -14 -16 -14 -12 0 -15 8 -12 29 3 16 0 28 -6 28 -6 0 -4
5 4 10 22 14 23 13 16 -15z m-43 -10 c-7 -21 -13 -19 -13 6 0 11 4 18 10 14 5
-3 7 -12 3 -20z m120 -76 c-3 -56 -33 -189 -42 -189 -3 0 -13 5 -21 10 -12 7
-15 31 -16 102 0 51 2 83 4 71 3 -22 22 -33 22 -13 0 23 19 8 22 -17 4 -28 4
-28 15 7 9 31 8 37 -10 53 -18 15 -19 20 -6 28 26 16 34 3 32 -52z m-732 20
c-5 -13 -10 -19 -10 -12 -1 15 10 45 15 40 3 -2 0 -15 -5 -28z m1016 7 c-3 -8
0 -17 8 -20 8 -3 16 0 18 7 7 19 18 2 24 -35 6 -39 22 -62 24 -32 1 10 5 3 8
-16 4 -19 11 -45 15 -56 7 -24 -22 -49 -70 -59 -26 -6 -27 -5 -12 8 14 11 15
16 5 26 -9 9 -9 14 3 21 13 8 13 10 -1 10 -10 0 -20 -11 -23 -25 -8 -30 -71
-95 -92 -95 -9 0 -14 12 -14 38 -1 20 -2 58 -4 84 -2 26 0 46 4 43 5 -3 3 6
-3 19 l-12 25 -21 -20 c-12 -11 -24 -36 -27 -56 -9 -52 -48 -141 -65 -148 -8
-3 -25 6 -38 20 -13 15 -29 23 -34 20 -6 -4 -7 1 -3 11 4 11 8 13 11 6 2 -7
13 -12 25 -11 21 0 21 1 2 9 -18 7 -17 8 9 11 35 5 45 24 16 32 -16 4 -20 13
-20 46 0 29 4 41 14 41 8 0 21 2 28 5 9 4 19 -4 26 -17 10 -22 11 -21 11 11 1
27 4 32 18 27 10 -4 25 2 39 15 13 12 33 23 46 24 13 1 29 3 36 4 7 0 20 10
29 21 20 24 27 26 20 6z m413 -8 c0 -6 -7 -7 -16 -4 -9 3 -23 6 -32 6 -14 0
-14 2 -3 9 16 10 51 3 51 -11z m-330 -40 c0 -5 -4 -8 -10 -8 -5 0 -10 10 -10
23 0 18 2 19 10 7 5 -8 10 -18 10 -22z m-280 -14 c0 -16 -2 -16 -24 -8 -13 5
-14 9 -5 20 13 16 29 9 29 -12z m656 -8 c8 -8 14 -16 14 -18 0 -2 -45 -3 -100
-3 -55 0 -100 3 -100 7 0 10 71 26 123 27 30 1 54 -4 63 -13z m-1322 -12 c3
-8 2 -12 -4 -9 -6 3 -10 10 -10 16 0 14 7 11 14 -7z m1309 -71 c-7 -2 -21 -2
-30 0 -10 3 -4 5 12 5 17 0 24 -2 18 -5z m138 -73 c21 0 40 -4 43 -9 8 -12
-84 -11 -108 1 -15 8 -16 12 -5 19 8 5 18 4 23 -1 6 -6 27 -10 47 -10z m-114
-6 c-3 -3 -12 -4 -19 -1 -8 3 -5 6 6 6 11 1 17 -2 13 -5z m-272 -51 c-35 -26
-108 -60 -188 -88 -43 -14 -123 -47 -179 -71 -55 -25 -102 -43 -104 -42 -4 5
206 102 334 154 57 24 114 49 125 57 28 19 38 10 12 -10z m270 17 c-3 -5 -11
-10 -16 -10 -6 0 -7 5 -4 10 3 6 11 10 16 10 6 0 7 -4 4 -10z m-60 -10 c3 -5
-1 -10 -10 -10 -9 0 -13 5 -10 10 3 6 8 10 10 10 2 0 7 -4 10 -10z m140 0 c3
-6 -1 -13 -10 -16 -19 -8 -30 0 -20 15 8 14 22 14 30 1z m65 -16 c0 -2 -7 -4
-15 -4 -8 0 -15 4 -15 10 0 5 7 7 15 4 8 -4 15 -8 15 -10z m-2266 -70 c9 -23
7 -144 -1 -144 -5 0 -28 7 -53 16 -36 13 -52 13 -86 4 -23 -7 -47 -9 -52 -6
-11 6 -105 -23 -192 -60 -30 -13 -65 -26 -77 -29 -14 -4 -24 -17 -28 -35 -4
-17 -10 -30 -15 -30 -16 0 3 -46 34 -78 18 -19 36 -53 43 -80 12 -47 12 -46
10 36 -1 51 2 81 8 79 5 -2 11 -17 11 -33 4 -79 12 -90 73 -102 76 -16 128
-15 197 3 49 12 61 13 90 0 l34 -14 0 -76 0 -76 -117 6 c-65 4 -123 8 -129 10
-6 2 -14 17 -17 34 -7 33 -25 44 -92 57 l-36 6 6 -36 c10 -48 -2 -46 -15 4
-13 47 26 34 -390 129 -525 121 -612 141 -622 147 -6 4 -50 8 -99 9 -60 2 -95
8 -111 19 -12 9 -27 16 -33 16 -5 0 -2 -5 8 -11 24 -14 23 -72 -2 -90 -18 -13
-21 -38 -34 -292 l-13 -278 -37 -30 c-33 -27 -37 -36 -37 -76 0 -34 7 -55 25
-79 24 -31 35 -71 16 -60 -13 9 -112 -20 -122 -35 -5 -8 -9 223 -9 537 l0 551
152 7 c84 3 221 11 303 17 250 17 261 18 540 29 338 12 633 29 705 39 97 15
157 13 164 -5z m2246 12 c0 -3 -4 -8 -10 -11 -5 -3 -10 -1 -10 4 0 6 5 11 10
11 6 0 10 -2 10 -4z m45 -16 c3 -5 1 -10 -4 -10 -6 0 -11 5 -11 10 0 6 2 10 4
10 3 0 8 -4 11 -10z m105 -60 c0 -5 -2 -10 -4 -10 -3 0 -8 5 -11 10 -3 6 -1
10 4 10 6 0 11 -4 11 -10z m-1234 -156 c-120 -66 -166 -82 -79 -26 52 33 172
92 188 92 5 0 -44 -30 -109 -66z m1577 -18 c4 -10 1 -13 -8 -9 -8 3 -12 9 -9
14 7 12 11 11 17 -5z m-4058 -149 l50 -13 1 -45 c1 -30 0 -34 -3 -11 -5 39
-22 43 -21 5 4 -97 -3 -105 -71 -82 l-31 11 0 74 c0 82 -2 81 75 61z m3955
-16 c0 -5 -9 -7 -20 -4 -11 3 -20 7 -20 9 0 2 9 4 20 4 11 0 20 -4 20 -9z
m-86 -57 c3 -8 2 -12 -4 -9 -6 3 -10 10 -10 16 0 14 7 11 14 -7z m116 -4 c-1
-19 -17 -24 -31 -9 -16 16 -15 17 7 15 13 0 24 -3 24 -6z m-3598 -135 c2 -37
-1 -67 -7 -69 -5 -3 -2 -5 8 -5 9 -1 26 -6 36 -12 10 -7 30 -9 44 -5 20 5 27
13 27 32 0 14 -4 23 -10 19 -6 -4 -10 8 -10 28 0 29 -5 36 -32 49 -18 8 -26
12 -18 10 8 -2 30 -6 48 -9 31 -5 32 -7 32 -57 0 -28 3 -62 7 -75 6 -23 5 -24
-33 -18 -21 4 -56 12 -76 17 l-38 11 0 74 c0 92 17 100 22 10z m-447 26 c-3
-5 0 -13 6 -17 8 -4 9 -3 5 4 -8 14 -1 15 43 6 19 -4 31 -13 31 -23 0 -14 2
-14 11 -1 8 11 9 -7 4 -65 -3 -44 -8 -82 -11 -84 -9 -9 -119 25 -118 37 1 7 2
44 3 82 1 56 4 70 17 70 8 0 13 -4 9 -9z m507 -11 c31 0 20 -17 -12 -18 -24 0
-30 3 -30 21 0 16 3 18 12 9 7 -7 20 -12 30 -12z m224 -10 l51 -11 6 -72 c3
-39 5 -72 4 -73 -1 -1 -14 0 -29 3 -24 5 -26 7 -12 20 22 23 15 107 -9 111
-13 3 -18 -2 -17 -15 4 -32 1 -34 -26 -17 l-25 17 3 -44 c3 -41 5 -44 30 -44
18 1 24 -3 18 -9 -6 -6 -21 -6 -42 0 -33 10 -33 10 -36 83 -3 67 -2 72 15 68
10 -3 41 -10 69 -17z m2999 -1 c11 -17 -1 -21 -15 -4 -8 9 -8 15 -2 15 6 0 14
-5 17 -11z m-3205 -35 c0 -2 -7 -4 -15 -4 -8 0 -15 4 -15 10 0 5 7 7 15 4 8
-4 15 -8 15 -10z m-3 -23 c4 0 9 -4 11 -10 2 -6 -8 -11 -22 -11 -14 0 -26 5
-26 10 0 6 -7 10 -15 10 -8 0 -15 7 -15 15 0 14 3 14 30 0 16 -8 33 -15 37
-14z m-209 -42 c2 -4 10 -5 18 -2 11 4 14 -6 14 -46 0 -60 1 -60 -112 -30
l-78 21 0 53 0 53 78 -20 c42 -12 78 -25 80 -29z m123 -79 l-6 -65 55 -17 c30
-10 58 -18 62 -18 4 0 5 32 2 70 -3 40 -1 70 4 70 6 0 10 -34 11 -75 1 -46 -3
-75 -9 -75 -6 0 -40 7 -77 17 l-65 16 6 51 c3 28 6 64 6 81 0 16 4 25 8 20 5
-6 6 -39 3 -75z m79 50 c20 -6 21 -8 5 -8 -11 0 -29 3 -40 8 -25 11 1 11 35 0z
m20 -43 c0 -5 -10 -7 -22 -3 -13 3 -29 6 -35 6 -7 0 -13 6 -13 14 0 12 6 12
35 3 19 -6 35 -15 35 -20z m-472 -14 l32 -6 0 -71 c0 -92 -8 -104 -53 -88 -18
7 -41 12 -50 12 -9 0 -17 7 -17 15 0 8 5 15 10 15 6 0 10 9 10 21 0 12 5 19
13 16 6 -2 11 -11 9 -21 -2 -9 4 -16 13 -16 11 0 15 11 15 43 -1 37 -2 40 -14
25 -22 -30 -36 -21 -36 22 0 43 -16 55 -23 18 -3 -19 -5 -18 -6 6 -1 27 1 28
32 22 17 -4 47 -10 65 -13z m654 2 c25 -4 50 -10 57 -14 15 -10 31 -151 17
-151 -5 0 -38 5 -73 11 -49 9 -63 15 -63 29 0 9 -3 45 -7 80 -5 55 -4 63 9 57
9 -3 36 -8 60 -12z m-398 -57 c-3 -4 2 -5 10 -2 13 5 16 -3 16 -45 0 -62 -3
-62 -162 -20 -40 10 -45 22 -32 86 l6 30 83 -20 c46 -12 82 -24 79 -29z m201
42 c3 -5 -1 -10 -9 -10 -9 0 -16 5 -16 10 0 6 4 10 9 10 6 0 13 -4 16 -10z
m11 -33 c4 -4 -5 -7 -19 -7 -15 0 -27 5 -27 11 0 6 -7 9 -15 5 -9 -3 -15 0
-15 8 0 11 6 11 35 2 19 -7 38 -15 41 -19z m405 -60 c21 -26 14 -50 -12 -42
-11 4 -19 2 -19 -4 0 -6 13 -11 29 -11 17 0 33 -5 36 -10 4 -7 -8 -8 -37 -4
-87 14 -92 17 -99 60 -4 21 -5 42 -3 45 7 13 89 -14 105 -34z m-493 -38 c-6
-4 -7 -12 -3 -19 4 -6 7 -29 7 -50 -1 -36 1 -38 36 -45 86 -17 92 -17 92 -1 0
9 -4 16 -9 16 -5 0 -7 9 -4 20 3 11 0 20 -6 20 -6 0 -11 15 -11 34 0 31 -3 34
-42 44 l-43 11 50 -6 c28 -3 53 -8 57 -12 4 -3 10 -40 14 -82 l6 -76 -73 12
-74 11 -7 39 c-4 22 -7 60 -7 84 -1 41 0 43 13 25 10 -12 11 -21 4 -25z m-481
-1 c-3 -7 -5 -2 -5 12 0 14 2 19 5 13 2 -7 2 -19 0 -25z m531 -4 c36 -3 42 -5
42 -13 0 -4 -12 -8 -27 -7 -28 1 -43 12 -43 31 0 7 3 7 8 0 4 -5 13 -10 20
-11z m222 -41 c33 -3 67 -11 75 -17 21 -15 34 -118 14 -112 -8 2 -53 10 -100
16 l-87 13 -6 45 c-10 72 -9 75 19 68 13 -3 52 -9 85 -13z m-180 -9 c0 -2 -7
-4 -15 -4 -8 0 -15 4 -15 10 0 5 7 7 15 4 8 -4 15 -8 15 -10z m-662 -51 c1 26
4 47 7 47 6 0 141 -26 183 -35 19 -5 22 -12 22 -55 0 -28 -4 -50 -9 -50 -5 0
-40 6 -78 14 -37 8 -85 17 -105 20 l-38 7 2 57 1 57 7 -55 7 -55 1 48z m372
33 l95 -23 3 -52 c3 -44 0 -51 -15 -51 -18 0 -79 13 -145 31 l-38 10 0 54 c0
30 1 55 3 55 1 -1 45 -11 97 -24z m291 0 c5 3 9 -2 9 -10 0 -10 -9 -16 -25
-16 -14 0 -25 5 -25 11 0 6 -7 9 -15 5 -9 -3 -15 0 -15 9 0 11 7 12 31 5 18
-5 36 -7 40 -4z m389 -10 c29 -13 40 -46 16 -46 -9 0 -16 -4 -16 -10 0 -5 14
-10 30 -10 17 0 30 -5 30 -11 0 -8 -11 -9 -32 -5 -18 4 -50 9 -70 13 -33 5
-38 9 -38 33 0 16 -3 36 -7 45 -5 15 -1 16 28 10 19 -4 45 -12 59 -19z m159 7
c0 -5 -4 -17 -9 -28 -8 -18 -9 -17 -9 8 -1 15 4 27 9 27 6 0 10 -3 9 -7z m43
-56 c7 -2 10 -8 6 -12 -8 -9 -48 22 -48 37 0 5 7 3 15 -5 8 -9 20 -17 27 -20z
m86 26 c-10 -2 -26 -2 -35 0 -10 3 -2 5 17 5 19 0 27 -2 18 -5z m-767 -40 c0
-10 0 -42 -1 -70 -1 -38 2 -53 12 -53 10 0 9 -3 -2 -10 -8 -5 -10 -10 -5 -11
23 -2 53 -6 93 -13 l42 -8 0 35 c0 22 -6 37 -15 41 -20 7 -21 76 -1 76 10 0
16 -20 21 -75 4 -42 5 -79 1 -82 -6 -6 -144 11 -151 19 -7 7 -10 168 -3 168 5
0 8 -8 9 -17z m642 -3 c3 -11 1 -18 -4 -14 -5 3 -9 12 -9 20 0 20 7 17 13 -6z
m98 -8 c8 -20 5 -22 -23 -22 -29 0 -30 1 -13 13 11 9 15 19 10 27 -5 8 -3 11
5 8 7 -2 17 -14 21 -26z m-696 8 c3 -5 2 -10 -4 -10 -5 0 -13 5 -16 10 -3 6
-2 10 4 10 5 0 13 -4 16 -10z m55 -9 c0 -5 -9 -7 -20 -4 -11 3 -20 7 -20 9 0
2 9 4 20 4 11 0 20 -4 20 -9z m497 -23 c-3 -8 -6 -5 -6 6 -1 11 2 17 5 13 3
-3 4 -12 1 -19z m-557 4 c0 -5 14 -7 30 -4 23 3 30 0 30 -13 0 -14 -6 -15 -32
-10 -18 4 -36 9 -40 12 -11 6 -10 23 2 23 6 0 10 -4 10 -8z m334 -23 c5 -5 26
-152 22 -156 -4 -5 -141 19 -147 25 -4 4 -9 41 -13 83 l-7 76 71 -12 c39 -7
72 -14 74 -16z m-279 -29 c3 -5 -1 -10 -9 -10 -9 0 -16 5 -16 10 0 6 4 10 9
10 6 0 13 -4 16 -10z m-2 -21 c10 0 17 -6 14 -12 -5 -16 -47 -22 -47 -7 0 7
-7 10 -15 6 -9 -3 -15 0 -15 10 0 12 6 15 23 9 12 -4 30 -7 40 -6z m420 4 c-7
-2 -19 -2 -25 0 -7 3 -2 5 12 5 14 0 19 -2 13 -5z m162 -42 c-6 -5 -25 10 -25
20 0 5 6 4 14 -3 8 -7 12 -15 11 -17z m-165 10 c0 -5 11 -12 25 -15 34 -9 32
-23 -4 -28 -26 -4 -30 -1 -33 24 -3 15 -1 28 4 28 4 0 8 -4 8 -9z m110 -20 c0
-18 -6 -31 -17 -36 -15 -5 -16 -4 -5 6 6 7 12 23 12 36 0 13 2 23 5 23 3 0 5
-13 5 -29z m-1077 -1 c3 -11 1 -18 -4 -14 -5 3 -9 12 -9 20 0 20 7 17 13 -6z
m1054 -2 c-3 -8 -6 -5 -6 6 -1 11 2 17 5 13 3 -3 4 -12 1 -19z m77 -23 c-14
-10 -15 -17 -6 -43 6 -19 7 -32 2 -32 -5 0 -12 11 -15 25 -16 77 -16 73 10 67
23 -4 24 -6 9 -17z m104 -10 c3 -3 2 -8 -3 -12 -4 -5 -10 -2 -12 5 -5 14 -43
16 -43 2 0 -5 3 -9 8 -8 12 2 42 -14 42 -23 0 -13 -34 -11 -65 3 -28 12 -33
28 -10 28 8 0 15 6 15 14 0 12 7 13 31 6 18 -5 34 -12 37 -15z m-1468 11 c0
-3 -4 -8 -10 -11 -5 -3 -10 -1 -10 4 0 6 5 11 10 11 6 0 10 -2 10 -4z m227
-48 c-3 -7 -5 -2 -5 12 0 14 2 19 5 13 2 -7 2 -19 0 -25z m1090 -15 c-3 -10
-5 -2 -5 17 0 19 2 27 5 18 2 -10 2 -26 0 -35z m-469 -28 c-3 -3 -9 2 -12 12
-6 14 -5 15 5 6 7 -7 10 -15 7 -18z m-828 1 c0 -8 17 -19 38 -25 l37 -10 -40
5 c-22 3 -43 8 -47 10 -12 7 -10 34 2 34 6 0 10 -6 10 -14z m1403 7 c-7 -2
-21 -2 -30 0 -10 3 -4 5 12 5 17 0 24 -2 18 -5z m-576 -65 c-3 -7 -5 -2 -5 12
0 14 2 19 5 13 2 -7 2 -19 0 -25z m-572 7 c42 -15 26 -19 -37 -9 -21 4 -38 11
-38 15 0 13 30 11 75 -6z m88 -22 c-7 -2 -21 -2 -30 0 -10 3 -4 5 12 5 17 0
24 -2 18 -5z m60 -10 c-7 -2 -21 -2 -30 0 -10 3 -4 5 12 5 17 0 24 -2 18 -5z
m60 -10 c-7 -2 -19 -2 -25 0 -7 3 -2 5 12 5 14 0 19 -2 13 -5z m930 -58 c-3
-9 -8 -14 -10 -11 -3 3 -2 9 2 15 9 16 15 13 8 -4z m-363 -115 c0 -5 -2 -10
-4 -10 -3 0 -8 5 -11 10 -3 6 -1 10 4 10 6 0 11 -4 11 -10z"/>
<path d="M1893 1554 c-3 -7 -9 -11 -14 -8 -5 3 -9 -16 -9 -41 0 -41 2 -46 18
-40 9 4 27 10 39 12 11 3 35 17 53 31 29 25 30 28 16 47 -14 17 -17 18 -26 5
-7 -10 -13 -11 -17 -5 -12 16 -53 16 -60 -1z"/>
<path d="M1819 1536 c-10 -11 6 -89 20 -94 10 -3 11 3 6 29 -11 48 -20 71 -26
65z"/>
<path d="M1787 1463 c-10 -9 -8 -46 3 -63 7 -11 9 -3 7 27 -1 24 -2 43 -3 43
0 0 -4 -3 -7 -7z"/>
<path d="M911 1188 c-1 -59 8 -76 13 -26 2 12 6 38 10 56 6 25 4 32 -7 32 -11
0 -15 -15 -16 -62z"/>
<path d="M951 1190 c-7 -25 -14 -52 -17 -60 -2 -8 5 -4 16 10 l20 25 1 -25 c1
-14 3 -18 5 -10 2 8 0 35 -4 60 l-9 45 -12 -45z"/>
<path d="M936 1000 c11 -56 18 -62 30 -25 7 21 7 32 1 28 -6 -3 -16 2 -24 13
-12 16 -13 15 -7 -16z"/>
<path d="M901 994 c0 -11 3 -14 6 -6 3 7 2 16 -1 19 -3 4 -6 -2 -5 -13z"/>
<path d="M997 963 c-4 -3 -7 -18 -6 -32 1 -26 1 -25 10 3 9 31 7 41 -4 29z"/>
<path d="M1590 1021 c0 -5 7 -12 16 -15 14 -5 15 -4 4 9 -14 17 -20 19 -20 6z"/>
<path d="M1080 962 c0 -5 7 -9 15 -9 8 0 15 4 15 9 0 4 -7 8 -15 8 -8 0 -15
-4 -15 -8z"/>
<path d="M1092 928 c-7 -7 -12 -17 -12 -22 0 -7 3 -6 8 1 5 8 12 8 26 -3 19
-13 19 -14 1 -14 -10 0 -16 -3 -13 -6 4 -3 25 1 48 9 l42 14 -23 17 c-28 19
-60 21 -77 4z"/>
<path d="M1220 875 c0 -14 4 -25 9 -25 4 0 6 11 3 25 -2 14 -6 25 -8 25 -2 0
-4 -11 -4 -25z"/>
<path d="M986 818 c-9 -36 -7 -106 4 -113 6 -4 10 20 10 64 0 74 -4 86 -14 49z"/>
<path d="M1603 833 c9 -2 23 -2 30 0 6 3 -1 5 -18 5 -16 0 -22 -2 -12 -5z"/>
<path d="M1663 816 c6 -14 3 -17 -9 -12 -36 14 -64 18 -64 8 0 -15 26 -33 35
-24 5 4 5 1 1 -6 -5 -7 -15 -11 -23 -8 -12 5 -14 1 -8 -21 7 -30 21 -43 45
-43 8 0 26 -3 39 -7 19 -5 22 -3 15 8 -5 8 -7 22 -6 32 2 9 0 17 -5 16 -24 -4
-53 2 -48 10 3 6 14 8 25 6 15 -3 20 2 20 20 0 13 -5 27 -12 31 -8 5 -9 2 -5
-10z"/>
<path d="M1120 790 c14 -9 7 -14 -13 -11 -5 1 -6 -2 -3 -7 3 -5 24 -9 48 -10
40 -1 42 0 24 13 -16 12 -22 12 -28 2 -5 -8 -8 -7 -8 6 0 10 -7 17 -17 17 -15
0 -16 -2 -3 -10z"/>
<path d="M1222 745 c0 -22 2 -32 5 -22 2 9 9 17 14 17 5 0 9 5 9 11 0 5 -4 8
-9 4 -5 -3 -12 3 -14 12 -3 10 -5 0 -5 -22z"/>
<path d="M1657 586 c-8 -19 2 -26 32 -25 14 0 21 3 14 5 -7 3 -9 12 -6 20 3 9
-2 14 -15 14 -11 0 -22 -6 -25 -14z"/>
<path d="M830 600 c0 -5 19 -10 42 -10 49 0 47 5 -4 14 -24 4 -38 3 -38 -4z"/>
<path d="M960 578 c0 -4 4 -8 10 -8 5 0 7 -7 4 -15 -4 -8 -1 -15 5 -15 6 0 11
11 11 23 0 14 -6 24 -15 24 -8 0 -15 -4 -15 -9z"/>
<path d="M848 573 c7 -3 16 -2 19 1 4 3 -2 6 -13 5 -11 0 -14 -3 -6 -6z"/>
<path d="M1156 578 c3 -4 9 -8 15 -8 5 0 9 4 9 8 0 5 -7 9 -15 9 -8 0 -12 -4
-9 -9z"/>
<path d="M1221 544 c0 -11 3 -14 6 -6 3 7 2 16 -1 19 -3 4 -6 -2 -5 -13z"/>
<path d="M1642 480 c-21 -9 -22 -10 -5 -30 10 -11 26 -20 36 -20 23 0 47 23
47 44 0 19 -16 21 -24 4 -5 -10 -7 -10 -12 0 -7 14 -11 14 -42 2z m45 -36 c-9
-9 -28 6 -21 18 4 6 10 6 17 -1 6 -6 8 -13 4 -17z"/>
<path d="M1710 430 c0 -5 5 -10 11 -10 5 0 7 5 4 10 -3 6 -8 10 -11 10 -2 0
-4 -4 -4 -10z"/>
<path d="M1690 400 c0 -6 7 -10 15 -10 8 0 15 2 15 4 0 2 -7 6 -15 10 -8 3
-15 1 -15 -4z"/>
<path d="M1688 373 c7 -3 16 -2 19 1 4 3 -2 6 -13 5 -11 0 -14 -3 -6 -6z"/>
<path d="M1292 3074 c-7 -8 -12 -22 -9 -32 3 -13 7 -10 16 12 13 33 11 40 -7
20z"/>
<path d="M592 2679 c2 -7 10 -15 17 -17 8 -3 12 1 9 9 -2 7 -10 15 -17 17 -8
3 -12 -1 -9 -9z"/>
<path d="M4205 2111 c-6 -11 33 -36 42 -27 7 7 -16 36 -28 36 -4 0 -10 -4 -14
-9z"/>
</g>
</svg>
